<svg width="163" height="48" xmlns="http://www.w3.org/2000/svg" xmlns:xlink="http://www.w3.org/1999/xlink" xml:space="preserve" overflow="hidden"><defs><clipPath id="clip0"><rect x="1111" y="668" width="162" height="47"/></clipPath><clipPath id="clip1"><rect x="1111" y="668" width="162" height="47"/></clipPath><clipPath id="clip2"><rect x="1111" y="668" width="162" height="47"/></clipPath><clipPath id="clip3"><rect x="1111" y="668" width="162" height="47"/></clipPath></defs><g transform="translate(-1110 -668)"><g><g clip-path="url(#clip0)"><g clip-path="url(#clip1)"><g clip-path="url(#clip2)"><g clip-path="url(#clip3)"><path d="M17.0933 14.7236 17.0933 27.2245C16.9631 27.2003 16.7848 27.176 16.563 27.1663 16.3413 27.1518 16.1099 27.1421 15.8736 27.1275 15.6374 27.113 15.4542 27.0936 15.324 27.0692 15.0348 27.0936 14.7746 27.1178 14.5334 27.1275 14.2972 27.1421 13.9694 27.176 13.55 27.2245L13.55 0 22.3432 0C25.472 0.0242644 27.6654 0.553227 28.9285 1.58688 30.1915 2.62055 30.823 4.26082 30.823 6.50769 30.823 8.75457 30.153 10.6472 28.8127 11.8653 27.4725 13.0834 25.3418 14.0102 22.4251 14.6459 21.8466 14.6994 21.0464 14.777 20.0195 14.8838 18.3901 14.777 17.4164 14.7236 17.103 14.7236L17.0933 14.7236ZM17.0933 1.54807 17.0933 13.1755C17.802 13.1755 18.395 13.1997 18.8674 13.2532 19.3158 13.1997 20.0099 13.1755 20.9548 13.1755 22.9265 12.9911 24.4595 12.3166 25.5491 11.1519 26.6386 9.98719 27.1833 8.51678 27.1833 6.74548 27.1833 5.28963 26.817 4.10067 26.0794 3.17378 25.3418 2.24688 24.2282 1.73247 22.7289 1.62571 22.0974 1.57232 20.8873 1.54807 19.1037 1.54807L17.0933 1.54807ZM35.2727 27.0692 35.2727 5.41095 46.4715 5.41095C46.4473 5.6002 46.4329 5.76035 46.4184 5.90108 46.4136 6.04182 46.3847 6.23108 46.3413 6.48828 46.3895 6.61445 46.4136 6.74548 46.4184 6.88622 46.4329 7.01724 46.4425 7.17739 46.4715 7.34238 45.1023 7.04636 43.2174 6.90077 40.8214 6.90077L38.0495 6.90077 38.0495 14.9129 42.9715 14.9129C43.1836 14.9129 43.5163 14.8935 43.9791 14.845 44.4467 14.8061 45.03 14.7673 45.7484 14.7188 45.7291 14.8692 45.7146 15.0051 45.7001 15.1166 45.6856 15.238 45.6615 15.3933 45.623 15.6069 45.6615 15.7378 45.6904 15.8737 45.7001 16.0047 45.7146 16.1455 45.7243 16.2959 45.7484 16.4657 45.4542 16.4463 45.03 16.4124 44.4853 16.3687 43.9405 16.3298 43.4343 16.2959 42.9715 16.2765L38.0495 16.2765 38.0495 25.5794C38.2809 25.5794 38.5219 25.6038 38.7725 25.6474 39.5101 25.628 40.8745 25.56 42.8606 25.4533 44.8468 25.3465 46.1147 25.2397 46.6595 25.1378 46.6401 25.2834 46.6257 25.4144 46.6112 25.5358 46.6064 25.6571 46.5775 25.8124 46.5341 26.0259 46.5341 26.0065 46.5823 26.3559 46.6595 27.0789L35.2775 27.0789 35.2727 27.0692ZM50.2221 16.2717C50.2414 12.0206 51.5815 9.05545 54.2426 7.38121 56.9037 5.70696 59.6757 4.89169 62.5537 4.93537 65.9379 5.04213 68.6136 5.65844 70.5659 6.7746L69.9006 9.25441 69.5247 9.25441C67.6783 7.16283 65.2871 6.13887 62.3657 6.1777 60.6591 6.21652 59.1261 6.59504 57.757 7.30357 56.3878 8.01693 55.3081 9.12824 54.5029 10.6375 53.7075 12.1515 53.3074 14.049 53.3074 16.3396 53.3074 18.4361 53.693 20.2413 54.4788 21.77 55.255 23.2937 56.3589 24.4439 57.7908 25.2155 59.2178 25.9822 60.8664 26.3608 62.7369 26.3414 64.6942 26.3414 66.3332 25.9822 67.659 25.264L67.659 17.1015C68.5412 17.1597 69.0137 17.1937 69.0763 17.1937 69.1631 17.1743 69.6066 17.1403 70.4309 17.1015L70.4309 26.0842C68.4737 26.6617 66.9407 27.045 65.8223 27.2489 64.7135 27.4478 63.3974 27.5595 61.8788 27.5789 58.1572 27.5789 55.2888 26.5549 53.2688 24.4972 51.2537 22.4445 50.2221 19.7657 50.1738 16.4657 50.1979 16.4172 50.2075 16.3784 50.2075 16.3396L50.2075 16.2717 50.2221 16.2717ZM73.2222 27.1954 83.0664 4.93537 83.8232 4.93537 93.2865 27.1954C93.0358 27.1954 92.4236 27.1566 91.4594 27.0692 91.2039 27.0887 90.9773 27.1081 90.7749 27.1178 90.5772 27.1324 90.3072 27.1566 89.9746 27.1954 89.0104 24.3371 87.892 21.4594 86.629 18.5622L78.6505 18.5622C78.4143 19.1786 77.9949 20.2559 77.3874 21.7991 76.7752 23.3471 76.3606 24.439 76.1388 25.0747 75.9171 25.7104 75.7049 26.419 75.4928 27.2003 75.2373 27.1615 75.0349 27.1324 74.8758 27.1227 74.7167 27.1178 74.5335 27.0984 74.3262 27.0741 74.1382 27.0936 73.9598 27.113 73.7862 27.1227 73.6223 27.1372 73.4295 27.1615 73.2222 27.2003L73.2222 27.1954ZM79.2482 17.2568 86.1565 17.2568 82.6276 9.16221 79.2482 17.2568ZM95.7692 10.8753C95.856 8.81766 96.584 7.31812 97.9627 6.3621 99.3414 5.41095 100.918 4.93537 102.706 4.93537 103.613 4.93537 104.485 5.0858 105.329 5.39639 106.173 5.70211 106.819 6.06609 107.282 6.48828 107.156 6.76489 106.862 7.63356 106.399 9.08941L106.115 9.08941C105.859 8.39546 105.411 7.75488 104.755 7.17254 104.104 6.59019 103.247 6.29902 102.171 6.29902 101.034 6.29902 100.094 6.65813 99.3462 7.36179 98.6039 8.07032 98.2279 8.93413 98.2279 9.94838 98.2279 11.7682 99.2065 13.1173 101.159 13.986L104.437 15.3496C105.643 15.8203 106.553 16.4609 107.185 17.2859 107.817 18.1109 108.13 19.2222 108.13 20.6198 108.13 21.7894 107.807 22.9153 107.17 24.0071 106.524 25.099 105.599 25.9725 104.389 26.6276 103.179 27.2828 101.781 27.5982 100.175 27.5789 99.2113 27.5595 98.2809 27.375 97.389 27.0256 96.4971 26.6762 95.7596 26.2395 95.1955 25.7104 95.4896 24.8855 95.6873 23.9294 95.7934 22.8521L96.1067 22.8521C96.907 24.1818 97.6976 25.0554 98.4737 25.463 99.2547 25.8803 100.098 26.123 101 26.2104 102.243 26.2977 103.318 25.8706 104.235 24.9389 105.15 24.0071 105.609 22.9153 105.609 21.6729 105.609 19.7657 104.577 18.3778 102.518 17.514L99.3897 16.2086C96.8635 15.1895 95.6584 13.4182 95.7644 10.8753L95.7692 10.8753ZM112.522 18.7467 112.522 5.41095C112.753 5.43036 112.955 5.44977 113.12 5.45947 113.288 5.47403 113.5 5.49829 113.751 5.53712 114.47 5.44977 114.98 5.41095 115.294 5.41095L115.294 18.7515C115.294 23.6383 117.607 26.089 122.236 26.089 124.756 26.089 126.531 25.3029 127.553 23.7208 128.571 22.1484 129.085 20.2413 129.085 18.0187L129.085 5.41095C129.255 5.43036 129.409 5.44977 129.544 5.45947 129.684 5.47403 129.814 5.49829 129.94 5.53712 130.151 5.49829 130.316 5.46918 130.445 5.45947 130.571 5.45462 130.715 5.43521 130.884 5.41095L130.884 18.402C130.884 20.3674 130.518 22.032 129.78 23.4054 129.043 24.769 127.987 25.8075 126.613 26.5161 125.235 27.2245 123.557 27.5789 121.58 27.5789 115.539 27.5789 112.526 24.6331 112.526 18.7467L112.522 18.7467ZM136.052 10.8753C136.139 8.81766 136.867 7.31812 138.245 6.3621 139.625 5.41095 141.2 4.93537 142.989 4.93537 143.896 4.93537 144.768 5.0858 145.612 5.39639 146.451 5.70211 147.102 6.06609 147.565 6.48828 147.439 6.76489 147.145 7.63356 146.682 9.08941L146.398 9.08941C146.142 8.39546 145.694 7.75488 145.038 7.17254 144.387 6.59019 143.525 6.29902 142.454 6.29902 141.317 6.29902 140.377 6.65813 139.629 7.36179 138.887 8.07032 138.511 8.93413 138.511 9.94838 138.511 11.7682 139.489 13.1173 141.441 13.986L144.72 15.3496C145.925 15.8203 146.836 16.4609 147.468 17.2859 148.099 18.1109 148.413 19.2222 148.413 20.6198 148.413 21.7894 148.09 22.9153 147.453 24.0071 146.808 25.099 145.882 25.9725 144.672 26.6276 143.461 27.2828 142.064 27.5982 140.458 27.5789 139.494 27.5595 138.564 27.375 137.672 27.0256 136.78 26.6762 136.043 26.2395 135.479 25.7104 135.773 24.8855 135.97 23.9294 136.076 22.8521L136.39 22.8521C137.19 24.1818 137.981 25.0554 138.756 25.463 139.538 25.8803 140.381 26.123 141.283 26.2104 142.526 26.2977 143.601 25.8706 144.518 24.9389 145.433 24.0071 145.891 22.9153 145.891 21.6729 145.891 19.7657 144.86 18.3778 142.801 17.514L139.673 16.2086C137.151 15.1895 135.941 13.4182 136.043 10.8753L136.052 10.8753Z" fill="#134D9A" fill-rule="nonzero" fill-opacity="1" transform="matrix(1.00989 0 0 1 1111 668)"/><path d="M0 44.9618C50.9176 29.355 108.873 29.6121 160.413 44.9618L159.748 47.0049C118.732 34.3534 49.1821 32.1162 0.559216 47.0049L0 44.9618Z" fill="#134D9A" fill-rule="evenodd" fill-opacity="1" transform="matrix(1.00989 0 0 1 1111 668)"/></g></g></g></g></g></g></svg>